<svg xmlns="http://www.w3.org/2000/svg" width="32" height="32" viewBox="0 0 32 32"><g class="nc-icon-wrapper" stroke-linecap="square" stroke-linejoin="miter" stroke-width="2" fill="#111111" stroke="#111111"><circle data-color="color-2" cx="16" cy="16" r="4" fill="none" stroke-miterlimit="10"></circle> <path d="M27,16a11.057,11.057,0,0,0-.217-2.175L30.49,11.1l-3-5.2L23.263,7.754a10.955,10.955,0,0,0-3.754-2.172L19,1H13l-.509,4.582A10.955,10.955,0,0,0,8.737,7.754L4.51,5.9l-3,5.2,3.707,2.727a11.009,11.009,0,0,0,0,4.35L1.51,20.9l3,5.2,4.227-1.852a10.955,10.955,0,0,0,3.754,2.172L13,31h6l.509-4.582a10.955,10.955,0,0,0,3.754-2.172L27.49,26.1l3-5.2-3.707-2.727A11.057,11.057,0,0,0,27,16Z" fill="none" stroke="#111111" stroke-miterlimit="10"></path></g></svg>