<svg xmlns="http://www.w3.org/2000/svg" width="32" height="32" viewBox="0 0 32 32"><g class="nc-icon-wrapper" fill="#000000"><path d="M26.607,5.426a14.893,14.893,0,0,0-10.6-4.4h-.018A14.992,14.992,0,0,0,1,16l2,0A12.993,12.993,0,0,1,15.992,3.023h.016A12.993,12.993,0,0,1,25.17,25.214a12.9,12.9,0,0,1-9.176,3.8h-.015a12.9,12.9,0,0,1-8.437-3.137L11.219,22.2,0,20,2.392,31.022l3.736-3.736a14.875,14.875,0,0,0,9.849,3.723h.017A14.993,14.993,0,0,0,26.607,5.426Z" fill="#000000"></path> <path data-color="color-2" d="M16,6a1,1,0,0,0-1,1v9a1,1,0,0,0,1,1h9a1,1,0,0,0,0-2H17V7A1,1,0,0,0,16,6Z"></path></g></svg>